<svg width="800" height="450" viewBox="0 0 800 450" fill="none" xmlns="http://www.w3.org/2000/svg">
<rect width="800" height="450" fill="#000000"/>
<rect x="50" y="50" width="700" height="350" fill="#0EA5E9" fill-opacity="0.1"/>
<circle cx="400" cy="225" r="40" fill="#0EA5E9"/>
<path d="M380 215H360V235H380V215Z" fill="#000000"/>
<path d="M360 215H340V235H360V215Z" fill="#000000"/>
<path d="M340 215H320V235H340V215Z" fill="#000000"/>
<path d="M320 215H300V235H320V215Z" fill="#000000"/>
<path d="M300 215H280V235H300V215Z" fill="#000000"/>
<path d="M280 215H260V235H280V215Z" fill="#000000"/>
<path d="M260 215H240V235H260V215Z" fill="#000000"/>
<path d="M240 215H220V235H240V215Z" fill="#000000"/>
<path d="M220 215H200V235H220V215Z" fill="#000000"/>
<path d="M200 215H180V235H200V215Z" fill="#000000"/>
<path d="M180 215H160V235H180V215Z" fill="#000000"/>
<path d="M160 215H140V235H160V215Z" fill="#000000"/>
<path d="M140 215H120V235H140V215Z" fill="#000000"/>
<path d="M120 215H100V235H120V215Z" fill="#000000"/>
<path d="M100 215H80V235H100V215Z" fill="#000000"/>
<path d="M80 215H60V235H80V215Z" fill="#000000"/>
<path d="M60 215H40V235H60V215Z" fill="#000000"/>
<path d="M40 215H20V235H40V215Z" fill="#000000"/>
<path d="M20 215H0V235H20V215Z" fill="#000000"/>
<path d="M400 215H380V235H400V215Z" fill="#000000"/>
<path d="M380 215H360V235H380V215Z" fill="#000000"/>
<path d="M420 215H400V235H420V215Z" fill="#000000"/>
<path d="M440 215H420V235H440V215Z" fill="#000000"/>
<path d="M460 215H440V235H460V215Z" fill="#000000"/>
<path d="M480 215H460V235H480V215Z" fill="#000000"/>
<path d="M500 215H480V235H500V215Z" fill="#000000"/>
<path d="M520 215H500V235H520V215Z" fill="#000000"/>
<path d="M540 215H520V235H540V215Z" fill="#000000"/>
<path d="M560 215H540V235H560V215Z" fill="#000000"/>
<path d="M580 215H560V235H580V215Z" fill="#000000"/>
<path d="M600 215H580V235H600V215Z" fill="#000000"/>
<path d="M620 215H600V235H620V215Z" fill="#000000"/>
<path d="M640 215H620V235H640V215Z" fill="#000000"/>
<path d="M660 215H640V235H660V215Z" fill="#000000"/>
<path d="M680 215H660V235H680V215Z" fill="#000000"/>
<path d="M700 215H680V235H700V215Z" fill="#000000"/>
<path d="M720 215H700V235H720V215Z" fill="#000000"/>
<path d="M740 215H720V235H740V215Z" fill="#000000"/>
<path d="M760 215H740V235H760V215Z" fill="#000000"/>
<path d="M780 215H760V235H780V215Z" fill="#000000"/>
<path d="M800 215H780V235H800V215Z" fill="#000000"/>
<text x="400" y="300" font-family="Arial, sans-serif" font-size="24" fill="#000000" text-anchor="middle">Axiom Assistant</text>
</svg>
